<?xml version="1.0" encoding="utf-8"?>
<!-- Generator: Adobe Illustrator 23.0.4, SVG Export Plug-In . SVG Version: 6.00 Build 0)  -->
<svg version="1.1" id="Layer_1" xmlns="http://www.w3.org/2000/svg" xmlns:xlink="http://www.w3.org/1999/xlink" x="0px" y="0px"
	 viewBox="0 0 488.6 405.4" style="enable-background:new 0 0 488.6 405.4;" xml:space="preserve">
<style type="text/css">
	.st0{fill:#6496DC;}
	.st1{fill:#393962;}
</style>
<g>
	<g>
		<path class="st0" d="M91,366.3c0,12.5-8,21.4-18.9,21.4c-6.4,0-11.3-3.1-14.3-7.8v25.5h-8.4v-59.6h8.4v7c3-4.7,7.9-7.9,14.4-7.9
			C82.9,344.9,91,353.7,91,366.3z M82.5,366.3c0-7.8-5.1-13.3-12.2-13.3c-7.2,0-12.6,5.5-12.6,13.3c0,7.9,5.4,13.3,12.6,13.3
			C77.4,379.6,82.5,374.2,82.5,366.3z"/>
		<path class="st0" d="M138,345.8v41h-8.4v-6.9c-3,4.7-7.9,7.8-14.3,7.8c-11,0-18.9-8.9-18.9-21.4s8.1-21.4,18.9-21.4
			c6.5,0,11.4,3.2,14.4,7.9v-7H138z M129.7,366.3c0-7.8-5.4-13.3-12.6-13.3s-12.2,5.5-12.2,13.3c0,7.9,5.1,13.3,12.2,13.3
			C124.2,379.6,129.7,374.2,129.7,366.3z"/>
		<path class="st0" d="M184.4,345.8l-27.1,59.6h-9l10.8-23.9l-16.2-35.8h9l11.6,26.7l11.9-26.7L184.4,345.8L184.4,345.8z"/>
		<path class="st0" d="M250.8,360.4v26.3h-8.4v-24.5c0-6.1-2.5-9.3-8.1-9.3c-6.6,0-10.1,5.1-10.1,12.6l0.1,21.2h-8.5v-24.5
			c0-6.1-2.5-9.3-8.1-9.3c-6.6,0-10,5.1-10,12.6v21.2h-8.4v-41h8.4v6.6c2.8-4.7,6.9-7.5,12.7-7.5c6.3,0,10.7,3.1,12.7,8.6
			c2.8-5.3,7.4-8.6,13.9-8.6C245.6,344.9,250.8,350.7,250.8,360.4z"/>
		<path class="st0" d="M298.9,368.6h-33.3c0.7,7.5,6,11.7,12.8,11.7c4.9,0,9-2.1,11-6.1h8.7c-3.2,9.2-11,13.5-19.8,13.5
			c-12.4,0-21.3-8.9-21.3-21.3s8.8-21.5,21.2-21.5C291.4,344.9,299.7,355.1,298.9,368.6z M266.1,361.7H290
			c-1.3-5.6-5.5-9.5-11.7-9.5C271.8,352.2,267.5,356.2,266.1,361.7z"/>
		<path class="st0" d="M342.2,360.9v25.9h-8.4v-24.2c0-6.3-2.8-9.7-8.9-9.7c-7.2,0-11.1,4.7-11.1,12.6v21.2h-8.4v-41h8.4v6.8
			c2.9-4.8,7.3-7.7,13.7-7.7C336.6,344.9,342.2,350.9,342.2,360.9z"/>
		<path class="st0" d="M380.3,384.7c-2.2,1.3-7,3-11.7,3c-8.4,0-15-5.3-15-16.6v-17.4H346v-7.9h7.6v-9.3l8.4-1.9v11.2h16.8v7.9H362
			v16.9c0,6,2.8,9.2,8.1,9.2c2.6,0,5.5-0.9,8.7-2L380.3,384.7z"/>
		<path class="st0" d="M383.2,373.6h8.6c1.3,4.5,4.6,6.6,11.7,6.6c5.4,0,8.8-1.6,8.8-4.7c0-3.4-3.9-4-10.7-5.6
			c-11.5-2.8-16.3-5.1-16.3-12c0-8.3,7-13,17.3-13c10.5,0,16.4,5,17.9,12.4H412c-1.2-3.4-4.3-5-9.5-5c-5.4,0-8.6,1.9-8.6,4.7
			c0,2.6,2.5,3.3,9.7,5c11.1,2.6,17.5,4.5,17.5,12.5c0,8.8-7.9,13.1-17.6,13.1C392.5,387.6,384.8,382.4,383.2,373.6z"/>
	</g>
	<path class="st0" d="M23.3,204.1C31,164.5,65.8,135,107.4,135c17.5,0,34.4,5.4,48.5,15l16.5-16.5c-12.9-9.6-27.9-16.3-43.7-19.5
		c4.7-51.3,48-91,100.1-91c20.6,0,40.4,6.2,57.3,17.9c14.6,10.1,26.2,23.8,33.7,39.7c-20.1,5.3-38.7,15.1-54.3,28.7l16.3,16.3
		c20-16.9,45.5-26.5,72.2-26.5c59.4,0,108,46,111.6,105h23c-1.7-34.4-16.4-66.6-41.3-90.5C422.1,89.5,389,76.1,354,76.1
		c-3.6,0-7.2,0.2-10.8,0.5c-9.1-22.1-24.3-41-44-54.6C278.5,7.6,254.1,0,228.8,0c-64.1,0-117.3,48.8-123.1,112.1
		c-53.5,0.8-97.8,40.1-105.7,92H23.3z"/>
	<path class="st1" d="M45.8,267.6c0-23.2,17.2-40.8,40.8-40.8c19.1,0,36,11.5,39,31.4h-20.9c-2.4-8.5-9.8-12.7-18.1-12.7
		c-12.4,0-20.3,9.1-20.2,22c-0.1,13.1,8.1,22,20,22c8.4,0,15.8-4.3,18.2-12.8h20.9c-3.1,20.6-20.3,31.6-39.1,31.6
		C63,308.4,45.8,290.8,45.8,267.6z"/>
	<path class="st1" d="M135.1,204.2h20.3v102.5h-20.3V204.2z"/>
	<path class="st1" d="M247.7,267.6c0,23.6-17.9,40.8-40.8,40.8c-22.8,0-40.7-17.3-40.7-40.8c0-23.6,18.2-40.8,40.7-40.8
		C229.5,226.8,247.7,244,247.7,267.6z M186.7,267.6c0,12.9,8.8,21.5,20.2,21.5s20.2-8.5,20.2-21.5c0-12.8-8.8-21.5-20.2-21.5
		C195.6,246.1,186.7,254.8,186.7,267.6z"/>
	<path class="st1" d="M330.1,228.5v78.2h-20.3v-10.8c-5.7,8-13.4,12.5-24.2,12.5c-17.2,0-27.9-11.8-27.9-30.9v-49.1H278V273
		c0,10.2,3.8,15.9,14.4,15.9c11.2,0,17.3-6.7,17.3-19.5v-41.1h20.4V228.5z"/>
	<path class="st1" d="M422.5,204.2v102.5h-20.3v-10.5c-5.4,7.4-13.6,12.2-24.6,12.2c-20.3,0-35.7-16.8-35.7-40.8
		c0-24.2,15.5-40.8,35.5-40.8c11.1,0,19.3,5.1,24.7,12.7v-35.2h20.4V204.2z M402.1,267.6c0-12.8-8.7-21.5-20-21.5
		c-11.4,0-19.8,8.7-19.8,21.5c0,12.9,8.5,21.5,19.8,21.5C393.5,289.1,402.1,280.5,402.1,267.6z"/>
</g>
</svg>
